<?xml version="1.0" encoding="UTF-8"?>
<svg id="Capa_1" data-name="Capa 1" xmlns="http://www.w3.org/2000/svg" version="1.1" viewBox="0 0 595.28 841.89">
  <defs>
    <style>
      .cls-1 {
        font-family: ValentineCute, 'Valentine Cute';
        font-size: 30.01px;
      }

      .cls-1, .cls-2 {
        fill: #3358a4;
      }

      .cls-2 {
        stroke-width: 0px;
      }
    </style>
  </defs>
  <text class="cls-1" transform="translate(175.78 248.16)"><tspan x="0" y="0">Spot my Pet</tspan></text>
  <g>
    <path class="cls-2" d="M397.27,215.44c.63-1.16.76-2.41.64-3.7-.08-.86.04-1.67.41-2.47.93-1.99,3.62-2.73,5.39-1.39.61.46,1.11,1.07,1.61,1.65.77.89,1.69,1.53,2.78,1.97.39.16.79.3,1.13.53,1.14.77,1.57,2.11,1.12,3.58-.32,1.04-1.28,1.96-2.64,2.13-.25.03-.5.02-.75.03-1.7.04-3.22.57-4.55,1.65-.33.27-.64.56-1,.78-1.17.71-2.69.53-3.74-.4-1.02-.9-1.33-2.44-.75-3.7.11-.23.23-.44.35-.66Z"/>
    <path class="cls-2" d="M396.67,202.19c1.58.58,2.41,3.16,1.32,4.62-.66.89-1.83,1.25-3.04.46-1.26-.82-1.88-2.39-1.27-3.95.57-1.45,1.93-1.72,2.99-1.14Z"/>
    <path class="cls-2" d="M396.25,213.9c-.46,1.21-1.86,1.7-3.18.91-1.24-.74-1.85-2.48-1.39-3.86.52-1.56,2.21-2.04,3.57-1,1.28.99,1.64,2.8,1,3.95Z"/>
    <path class="cls-2" d="M399.53,201.08c.34-1.12,1.72-1.84,3.14-1.02,1.4.81,2,2.68,1.33,4.15-.57,1.24-1.84,1.63-3.06.99-1.44-.76-2.06-2.64-1.4-4.12Z"/>
    <path class="cls-2" d="M407.57,209.55c-1.39-.47-2.58-2.85-1.41-4.6.57-.86,1.59-1.27,2.68-.75,1.61.76,2.3,2.68,1.63,4.23-.55,1.25-1.81,1.68-2.9,1.11Z"/>
  </g>
</svg>